<?xml version="1.0" encoding="UTF-8"?>
<svg version="1.1" xmlns="http://www.w3.org/2000/svg" width="2475" height="1170">
<path d="M0 0 C8.17619749 3.95395166 16.02193751 8.27565188 23.8125 12.9375 C43.40710505 24.48513267 59.58453248 32.33615596 82.625 26.875 C84.0776123 26.54592651 84.0776123 26.54592651 85.55957031 26.21020508 C94.39830399 24.19107245 103.21289166 22.05666082 112.01416016 19.88037109 C113.01495605 19.63496582 114.01575195 19.38956055 115.046875 19.13671875 C116.37477051 18.80740356 116.37477051 18.80740356 117.72949219 18.47143555 C120 18 120 18 123 18 C121.66305197 22.45066795 119.89378946 26.21075482 117.55078125 30.21875 C117.21507614 30.79854614 116.87937103 31.37834229 116.53349304 31.97570801 C115.46500137 33.82020413 114.38951643 35.66047048 113.3125 37.5 C96.77051586 65.79881301 92.46562421 84.08430986 100.5 116.3125 C101.28815685 119.542789 102.07158761 122.77419194 102.85388184 126.00590515 C103.33902132 128.00246304 103.82853492 129.99796426 104.32287598 131.99226379 C104.54310425 132.8846727 104.76333252 133.7770816 104.99023438 134.6965332 C105.18564819 135.48179886 105.38106201 136.26706451 105.58239746 137.0761261 C106 139 106 139 106 141 C101.90932098 139.74975864 98.39995352 138.24342331 94.7265625 136.05859375 C93.74421631 135.47883789 92.76187012 134.89908203 91.74975586 134.30175781 C90.20300171 133.3789502 90.20300171 133.3789502 88.625 132.4375 C86.47308422 131.16984612 84.3207393 129.90292048 82.16796875 128.63671875 C81.11786621 128.01716309 80.06776367 127.39760742 78.98583984 126.75927734 C74.98232026 124.40037611 70.97061305 122.05792956 66.9375 119.75 C66.02121826 119.21330688 66.02121826 119.21330688 65.08642578 118.66577148 C52.8192114 111.68508519 37.86789438 112.4979224 24.5625 116 C-3.78453421 124.0604783 -41.69682986 139.4138062 -61.125 162.5 C-64.95466661 166.90145712 -68.97587633 171.02935708 -73.125 175.125 C-77.42426005 179.37764636 -81.58463102 183.66005316 -85.49609375 188.27734375 C-87.09105998 190.10430507 -88.77017842 191.80059287 -90.5 193.5 C-93.4454073 196.39999353 -96.15463709 199.43626431 -98.8515625 202.56640625 C-101.67620659 205.76595765 -104.58766366 208.88037408 -107.5 212 C-112.09088816 216.92613066 -116.62250309 221.88212307 -121 227 C-121.87622321 228.02220303 -122.75253345 229.04433146 -123.62890625 230.06640625 C-125.14327815 231.83300549 -126.6571143 233.60005129 -128.16943359 235.3684082 C-131.43569159 239.18544894 -134.72162988 242.98450275 -138.02099609 246.77294922 C-143.80568693 253.41864882 -149.46108894 260.14708038 -155 267 C-156.02931488 268.25963213 -157.05931046 269.51870823 -158.08984375 270.77734375 C-164.3635322 278.44898873 -170.53327554 286.17786543 -176.52734375 294.07080078 C-178.24776604 296.3245768 -179.98329085 298.56637704 -181.71875 300.80859375 C-189.49036797 310.88266979 -196.94058183 321.09104794 -204.046875 331.64453125 C-206.66395878 335.52868309 -209.37407779 339.33503485 -212.125 343.125 C-217.7222176 350.88710486 -222.8885854 358.91216805 -228 367 C-228.49870605 367.78729492 -228.99741211 368.57458984 -229.51123047 369.38574219 C-243.38206289 391.34971728 -256.24156929 413.83670742 -268 437 C-268.36641602 437.71768555 -268.73283203 438.43537109 -269.11035156 439.17480469 C-271.08740538 443.05149187 -273.03019219 446.94343982 -274.94433594 450.8515625 C-275.69021554 452.36954134 -276.44138279 453.88492746 -277.19628906 455.3984375 C-303.95786411 509.12571861 -322.42770364 567.16743628 -334.75 625.8125 C-334.92886749 626.65978668 -335.10773499 627.50707336 -335.29202271 628.3800354 C-338.60966365 644.19300232 -341.25236413 660.06371198 -344 676 C-381.29 676 -418.58 676 -457 676 C-463.75409305 662.49181389 -470.4791416 649.0156778 -476.953125 635.37890625 C-480.59525394 627.73313153 -484.2997575 620.11775941 -488 612.5 C-492.52635035 603.17910133 -497.04134935 593.85353847 -501.5 584.5 C-506.28252559 574.46773778 -511.12993599 564.46755135 -515.98388672 554.46972656 C-520.34335275 545.48967533 -524.68826804 536.50310395 -529 527.5 C-533.63678555 517.81872939 -538.31250806 508.15678103 -543 498.5 C-549.22049484 485.68373199 -555.40962455 472.85298309 -561.55908203 460.00244141 C-563.09389426 456.80435248 -564.63810615 453.61091135 -566.18359375 450.41796875 C-566.95546021 448.81816162 -566.95546021 448.81816162 -567.74291992 447.18603516 C-568.72572987 445.1490887 -569.71143388 443.11353532 -570.70043945 441.07958984 C-571.3514563 439.72728271 -571.3514563 439.72728271 -572.015625 438.34765625 C-572.40008789 437.55367432 -572.78455078 436.75969238 -573.18066406 435.94165039 C-574 434 -574 434 -574 432 C-565.34104609 432.50249744 -556.6821896 433.00663472 -548.02344894 433.51279354 C-544.00168055 433.7478415 -539.97988236 433.98235103 -535.95800781 434.21557617 C-532.06756213 434.44120064 -528.17720556 434.66830982 -524.28690338 434.89639473 C-522.81199394 434.98261593 -521.33705454 435.06832639 -519.86208344 435.15348625 C-515.24036653 435.42053414 -510.62007835 435.70566513 -506 436 C-504.23661537 436.10051666 -504.23661537 436.10051666 -502.43760681 436.20306396 C-501.36209061 436.27422424 -500.2865744 436.34538452 -499.1784668 436.41870117 C-498.24318649 436.47636154 -497.30790619 436.53402191 -496.34428406 436.59342957 C-494 437 -494 437 -491.09765625 439.2734375 C-490.42605469 440.29695313 -489.75445312 441.32046875 -489.0625 442.375 C-488.67247803 442.94299316 -488.28245605 443.51098633 -487.88061523 444.09619141 C-487.02221804 445.35499593 -486.18117769 446.62576598 -485.35546875 447.90625 C-483.90072258 450.15335071 -482.39465575 452.35881429 -480.875 454.5625 C-478.64485892 457.79802712 -476.43062609 461.04353473 -474.2265625 464.296875 C-471.38193229 468.47170365 -468.44459026 472.56608281 -465.4375 476.625 C-459.4885065 484.65484609 -453.7426856 492.82186666 -448 501 C-440.70699461 511.37721928 -433.35205827 521.70548815 -425.91015625 531.9765625 C-423.25681951 535.63931125 -420.62471747 539.31669482 -418 543 C-415.97829775 539.96744662 -414.66472879 537.07620306 -413.234375 533.7265625 C-412.67611574 532.42848565 -412.11750611 531.13055945 -411.55859375 529.83276367 C-411.11749268 528.80534561 -411.11749268 528.80534561 -410.66748047 527.75717163 C-403.57241471 511.26864851 -396.01314182 495.06448427 -388 479 C-387.43313477 477.86224121 -386.86626953 476.72448242 -386.28222656 475.55224609 C-377.59822475 458.22634972 -368.11231833 441.52240011 -358 425 C-357.46133301 424.11876465 -356.92266602 423.2375293 -356.36767578 422.32958984 C-341.38232013 397.93807135 -324.95325751 374.3024112 -307 352 C-306.48969238 351.36352539 -305.97938477 350.72705078 -305.45361328 350.07128906 C-294.60884976 336.55902366 -283.44829787 323.42015125 -271.61743164 310.76098633 C-270.4469205 309.4865868 -269.29172095 308.1980673 -268.14624023 306.90112305 C-261.8173696 299.74498755 -255.13391672 292.98119245 -248.37036133 286.23999023 C-246.43389451 284.30890453 -244.50286044 282.37250118 -242.57226562 280.43554688 C-236.54911233 274.40915046 -230.50455508 268.51070737 -224 263 C-222.22429779 261.38032183 -220.45291693 259.75588282 -218.6875 258.125 C-213.80112002 253.67311345 -208.76464457 249.4669687 -203.61962891 245.31933594 C-201.81015192 243.84535137 -200.01966395 242.35009746 -198.23046875 240.8515625 C-156.7871924 206.21816772 -110.81206695 176.0706344 -61.80639648 153.33349609 C-60.88028564 152.89344238 -59.9541748 152.45338867 -59 152 C-58.38047958 151.72688995 -57.76095917 151.45377991 -57.12266541 151.1723938 C-51.93445347 148.77855186 -48.24421796 145.82041192 -44.26171875 141.7578125 C-43.65544144 141.15299042 -43.04916412 140.54816833 -42.42451477 139.92501831 C-41.14836308 138.64721582 -39.87711487 137.36449904 -38.6105957 136.07714844 C-36.7148173 134.15272999 -34.80143448 132.24733664 -32.88476562 130.34375 C-12.35203476 109.77474899 9.14224981 83.98214029 11.02905273 53.85083008 C10.9790816 47.22734577 9.42174605 41.01472582 7.8125 34.625 C7.48445143 33.25791654 7.15821076 31.89039804 6.83374023 30.52246094 C5.91504004 26.67493521 4.96162335 22.83702447 4 19 C3.75958984 18.03352539 3.51917969 17.06705078 3.27148438 16.07128906 C2.40911142 12.60978277 1.5369712 9.15301192 0.62890625 5.703125 C0 3 0 3 0 0 Z " fill="#8F50B8" transform="translate(907,19)"/>
<path d="M0 0 C13.73187021 11.7566081 21.47901042 27.75948408 27.6953125 44.44921875 C27.94063721 43.94173096 28.18596191 43.43424316 28.4387207 42.91137695 C40.1528443 18.96652907 55.95322596 1.80064046 81.28515625 -7.9296875 C92.45489849 -11.52897424 103.29615805 -12.92037494 115.0078125 -12.86328125 C116.19971191 -12.8583667 117.39161133 -12.85345215 118.61962891 -12.84838867 C127.03190998 -12.73626326 134.64956459 -12.17302108 142.6953125 -9.55078125 C143.78328125 -9.19886719 144.87125 -8.84695313 145.9921875 -8.484375 C158.3062403 -4.10508157 168.45570868 2.22527528 177.6953125 11.44921875 C178.74332031 12.47982422 178.74332031 12.47982422 179.8125 13.53125 C198.20203179 32.81521427 202.19095834 58.16496344 202.03588867 83.71679688 C202.03504039 85.69942715 202.03552147 87.68205837 202.03721619 89.66468811 C202.0380697 94.99629985 202.0205493 100.32770516 201.99949431 105.65926933 C201.98061908 111.24992678 201.97896858 116.84059002 201.97541809 122.43127441 C201.96612928 132.99536978 201.94155871 143.55937094 201.91136962 154.12342501 C201.87772661 166.15982944 201.8613148 178.1962386 201.84628332 190.23267841 C201.81500603 214.97158929 201.76003391 239.7103712 201.6953125 264.44921875 C177.6053125 264.44921875 153.5153125 264.44921875 128.6953125 264.44921875 C128.67549316 259.31738037 128.65567383 254.18554199 128.63525391 248.89819336 C128.56825288 231.91487055 128.49071223 214.93160783 128.40778542 197.94835567 C128.35777847 187.65463161 128.31133471 177.36091503 128.2734375 167.06713867 C128.24037636 158.08945495 128.20046838 149.11183147 128.15252244 140.13421446 C128.12739708 135.38576872 128.10557551 130.63736221 128.09196854 125.88886833 C128.07902026 121.40813598 128.05683212 116.92753918 128.02792931 112.44688225 C128.01895223 110.81322711 128.01318678 109.1795502 128.01109886 107.54587173 C127.98541536 90.48356137 127.68609287 73.93884667 115.6953125 60.44921875 C103.58481499 50.96975584 91.62723883 49.2454934 76.6953125 50.44921875 C66.67249917 51.99913834 57.58915978 57.3828839 51.2265625 65.24609375 C45.22918536 73.8749731 42.46099778 82.7265788 42.4168396 93.20678711 C42.408151 94.31347402 42.408151 94.31347402 42.39928687 95.44251823 C42.38240949 97.89141185 42.37942105 100.34011562 42.37646484 102.7890625 C42.36715818 104.55377152 42.35698842 106.31847616 42.34602356 108.08317566 C42.31879272 112.8573338 42.30359469 117.63146254 42.29059553 122.4056778 C42.27493468 127.40118265 42.24815389 132.39662776 42.2225647 137.39208984 C42.17582918 146.84432256 42.13905978 156.29656659 42.10589182 165.74885559 C42.06763348 176.51308129 42.01823305 187.2772469 41.96790767 198.04142189 C41.86466554 220.17731527 41.77685078 242.31323404 41.6953125 264.44921875 C17.9353125 264.44921875 -5.8246875 264.44921875 -30.3046875 264.44921875 C-30.32656128 256.35652466 -30.32656128 256.35652466 -30.34887695 248.1003418 C-30.39922368 230.270802 -30.46566947 212.44134903 -30.54040241 194.61189556 C-30.58531822 183.80239018 -30.62474262 172.99291743 -30.65112305 162.18334961 C-30.67413724 152.75887915 -30.7075735 143.33451233 -30.75338906 133.91012412 C-30.7772751 128.92257241 -30.79603413 123.93512305 -30.80230141 118.94751549 C-30.80837317 114.24677839 -30.82844828 109.54630305 -30.85896301 104.84566307 C-30.86770981 103.12647829 -30.87147283 101.40725925 -30.86969566 99.68805313 C-30.85944017 85.1808082 -32.23790806 72.39685341 -42.34375 61.1875 C-47.43287364 56.32316098 -52.5929711 53.50098698 -59.3046875 51.44921875 C-59.89378906 51.25714844 -60.48289062 51.06507813 -61.08984375 50.8671875 C-73.59030588 48.50819377 -86.25240467 50.46401752 -97.14453125 56.95703125 C-107.87463251 64.3691446 -112.84621877 74.64244749 -115.33268815 87.22228914 C-116.75584901 95.07346746 -116.74581037 102.89447509 -116.73706055 110.84936523 C-116.74610184 112.53629258 -116.75643476 114.22321342 -116.76794434 115.91012573 C-116.79526284 120.44010265 -116.80476422 124.96995409 -116.81079841 129.50000262 C-116.82024833 134.25257913 -116.84645648 139.00506429 -116.87080383 143.75758362 C-116.91429187 152.73501345 -116.94294709 161.71242537 -116.96612722 170.68992811 C-116.99836143 182.83686642 -117.05380513 194.98369809 -117.10787296 207.13055515 C-117.19231255 226.23674442 -117.24599844 245.34289282 -117.3046875 264.44921875 C-141.7246875 264.44921875 -166.1446875 264.44921875 -191.3046875 264.44921875 C-191.3046875 174.35921875 -191.3046875 84.26921875 -191.3046875 -8.55078125 C-168.5346875 -8.55078125 -145.7646875 -8.55078125 -122.3046875 -8.55078125 C-119.98325893 25.10993304 -119.98325893 25.10993304 -119.3046875 38.44921875 C-118.75941406 37.42183594 -118.21414063 36.39445313 -117.65234375 35.3359375 C-112.92017891 26.57835972 -108.01237216 18.85640125 -101.3046875 11.44921875 C-100.49837891 10.50369141 -100.49837891 10.50369141 -99.67578125 9.5390625 C-76.20248837 -16.2874427 -27.46487147 -22.08845461 0 0 Z " fill="#296BFF" transform="translate(746.3046875,893.55078125)"/>
<path d="M0 0 C23.64625965 21.3695083 38.29967642 46.5811946 45.546875 77.69238281 C45.7418457 78.52535889 45.93681641 79.35833496 46.13769531 80.21655273 C51.24954765 103.72250865 49.734375 126.27067057 49.734375 150.56738281 C-20.555625 150.56738281 -90.845625 150.56738281 -163.265625 150.56738281 C-159.54287506 176.62663238 -155.37220398 196.45235242 -134.890625 213.37988281 C-118.24279725 225.58637958 -96.81395831 227.81878769 -76.82226562 225.25390625 C-61.92753275 222.70182888 -48.26714185 216.03696682 -39.16015625 203.71972656 C-36.38160178 199.46309569 -34.04921405 195.33505355 -32.265625 190.56738281 C-27.39592992 190.45171032 -22.95365479 190.83530782 -18.16870117 191.72900391 C-17.4978952 191.85258774 -16.82708923 191.97617157 -16.13595581 192.10350037 C-13.94224824 192.50951343 -11.75041512 192.92475443 -9.55859375 193.34082031 C-8.02645424 193.62782144 -6.49425206 193.91448817 -4.96199036 194.20083618 C-1.76299185 194.80023953 1.43507172 195.40435664 4.63256836 196.01171875 C8.73436381 196.79035324 12.83845423 197.55604743 16.94334888 198.31815147 C20.10217467 198.90625538 23.25958959 199.50166427 26.4166317 200.09926224 C27.93008382 200.38472299 29.44399299 200.66777137 30.95835304 200.9483757 C33.06854683 201.34040807 35.17661339 201.74234962 37.28442383 202.14697266 C38.48464676 202.37347504 39.68486969 202.59997742 40.92146301 202.83334351 C43.734375 203.56738281 43.734375 203.56738281 45.734375 205.56738281 C40.57645534 220.61131516 34.22555373 233.44200125 23.734375 245.56738281 C23.1053125 246.35242188 22.47625 247.13746094 21.828125 247.94628906 C4.77397157 268.37847672 -20.45230052 280.13196815 -45.828125 286.31738281 C-47.04870605 286.61563965 -47.04870605 286.61563965 -48.29394531 286.91992188 C-61.93024163 290.05600107 -75.30900104 290.91700195 -89.24291992 290.88305664 C-91.93254602 290.87990691 -94.62105638 290.90341946 -97.31054688 290.92871094 C-132.82569115 291.05736991 -168.93494499 280.95785994 -196.265625 257.56738281 C-196.7714209 257.14376465 -197.2772168 256.72014648 -197.79833984 256.28369141 C-225.23120891 233.17821188 -239.56779793 199.2885165 -245.265625 164.56738281 C-245.38421875 163.87338379 -245.5028125 163.17938477 -245.625 162.46435547 C-253.11094735 116.78002497 -245.26910145 64.81239462 -218.265625 26.56738281 C-215.70543658 23.13799462 -213.02902651 19.83463761 -210.265625 16.56738281 C-209.60046875 15.766875 -208.9353125 14.96636719 -208.25 14.14160156 C-198.56220404 2.89299403 -187.27028045 -6.27930843 -174.265625 -13.43261719 C-173.66024902 -13.76745117 -173.05487305 -14.10228516 -172.43115234 -14.44726562 C-121.02419156 -42.53057582 -45.0969127 -39.69687351 0 0 Z M-142.87890625 50.08691406 C-155.6931065 63.40445442 -161.01239172 79.54151659 -163.265625 97.56738281 C-120.035625 97.56738281 -76.805625 97.56738281 -32.265625 97.56738281 C-33.05660158 86.13717424 -33.05660158 86.13717424 -35.890625 75.50488281 C-36.15786377 74.74103271 -36.42510254 73.97718262 -36.70043945 73.19018555 C-42.26210616 57.88794695 -51.58873451 45.81990327 -66.1015625 38.00097656 C-91.90951693 26.30774289 -122.21601707 30.72153755 -142.87890625 50.08691406 Z " fill="#296BFF" transform="translate(943.265625,416.4326171875)"/>
<path d="M0 0 C0.74636719 0.68320312 1.49273437 1.36640625 2.26171875 2.0703125 C29.47165129 27.80815445 39.72150641 65.93657046 43 102 C43 115.86 43 129.72 43 144 C-27.29 144 -97.58 144 -170 144 C-166.8152287 167.35498951 -163.12578675 188.99744184 -144.65625 205.03515625 C-126.44621116 218.48575312 -105.54885852 221.30212269 -83.51220703 218.70703125 C-69.7445031 216.46121416 -55.38911272 209.84149943 -47.06640625 198.32421875 C-44.06166871 193.70779246 -41.3001942 189.00630502 -39 184 C-34.11181566 183.88063841 -29.67080853 184.27749709 -24.87133789 185.19335938 C-23.86031006 185.383554 -23.86031006 185.383554 -22.82885742 185.57759094 C-20.6255962 185.99360887 -18.42417058 186.41859353 -16.22265625 186.84375 C-14.68576972 187.13577091 -13.14877549 187.42722553 -11.61167908 187.71813965 C-7.58455109 188.48188704 -3.55892422 189.25327571 0.46643066 190.02630615 C4.58155322 190.81515825 8.69805975 191.59671784 12.81445312 192.37890625 C20.87766842 193.91216768 28.93931136 195.45351061 37 197 C38.26042238 201.99828212 37.12836031 205.00988672 35 209.5625 C34.67894287 210.26777832 34.35788574 210.97305664 34.02709961 211.69970703 C19.4397653 243.15420323 -6.15792079 264.02651309 -38.3359375 275.84375 C-42.95680209 277.30193328 -47.60717582 278.53400518 -52.3125 279.6875 C-53.53779419 279.99143677 -53.53779419 279.99143677 -54.7878418 280.30151367 C-68.66479988 283.53313405 -82.43516117 284.35135448 -96.62548828 284.31567383 C-99.23382688 284.31251956 -101.84101946 284.33606533 -104.44921875 284.36132812 C-144.02654034 284.51008621 -180.75058613 271.89928705 -210 245 C-211.02673828 244.07960938 -211.02673828 244.07960938 -212.07421875 243.140625 C-226.9771474 229.10616538 -237.10315594 210.02733517 -244 191 C-244.35336426 190.03658691 -244.35336426 190.03658691 -244.71386719 189.05371094 C-260.71774844 144.51223829 -258.64684199 87.44454853 -239.1328125 44.4375 C-231.59353819 28.48180589 -222.1132254 14.88160164 -210 2 C-209.4740625 1.40960938 -208.948125 0.81921875 -208.40625 0.2109375 C-187.56504522 -22.22525744 -154.87180826 -34.81903633 -125 -38 C-123.85402344 -38.12246094 -122.70804688 -38.24492187 -121.52734375 -38.37109375 C-77.04167521 -42.09740104 -32.74507936 -31.35048484 0 0 Z M-150.1875 43.5625 C-161.8066313 55.69885813 -170 74.09480468 -170 91 C-126.77 91 -83.54 91 -39 91 C-40.63494523 71.38065728 -46.23440908 53.77650828 -61 40 C-86.84843096 18.16318497 -125.76209782 20.84985468 -150.1875 43.5625 Z " fill="#296BFF" transform="translate(261,423)"/>
<path d="M0 0 C19.01620304 -0.56221818 38.42606535 3.35787542 55.24609375 12.18359375 C56.25285156 12.69664062 57.25960938 13.2096875 58.296875 13.73828125 C66.42895935 18.14711557 72.68137253 23.78155513 79.24609375 30.18359375 C79.90351562 30.76753906 80.5609375 31.35148437 81.23828125 31.953125 C98.33014251 47.50908168 106.63913894 73.93946846 109.24609375 96.18359375 C109.3285456 96.83834088 109.41099745 97.49308802 109.49594784 98.16767597 C110.57173005 107.99185831 110.37851733 117.8414603 110.35961914 127.7097168 C110.35933671 129.78027851 110.35949609 131.85084032 110.36006165 133.92140198 C110.36034745 139.51562236 110.35448576 145.1098211 110.34748769 150.70403647 C110.34121807 156.56032434 110.3406475 162.41661274 110.33946228 168.27290344 C110.33635958 179.35065644 110.32816054 190.42839952 110.31811279 201.50614816 C110.30691864 214.12284869 110.30143289 226.73954971 110.29641736 239.35625398 C110.28597701 265.29870733 110.26764476 291.24114709 110.24609375 317.18359375 C82.19609375 317.18359375 54.14609375 317.18359375 25.24609375 317.18359375 C25.20871094 303.26945312 25.17132812 289.3553125 25.1328125 275.01953125 C25.10253117 266.19660468 25.07150329 257.37369116 25.03710938 248.55078125 C24.982675 234.55144444 24.93125967 220.55214385 24.8996582 206.55273438 C24.8766263 196.35585211 24.84317044 186.15906537 24.79739219 175.96225893 C24.77352993 170.56716489 24.75475538 165.17216504 24.74847984 159.7770195 C24.74239725 154.68969719 24.72228359 149.60261565 24.69181824 144.51538277 C24.68308864 142.65716415 24.67930478 140.798914 24.68108559 138.94067574 C24.6936823 119.7157665 22.29119215 102.23740641 9.24609375 87.18359375 C-2.11776396 76.47419905 -16.2956454 72.18359375 -31.75390625 72.18359375 C-48.59394949 73.2992902 -64.06538648 78.61896921 -75.75390625 91.18359375 C-88.70939145 108.25314822 -90.20699025 127.69293544 -90.1862793 148.37133789 C-90.19532165 150.22604514 -90.20565481 152.08074647 -90.21716309 153.93544006 C-90.24446908 158.91362976 -90.25398124 163.89170527 -90.26001716 168.86996007 C-90.2694704 174.09364448 -90.29567876 179.31724588 -90.32002258 184.5408783 C-90.36350162 194.40718396 -90.39216234 204.27347335 -90.41534597 214.13984531 C-90.44758648 227.49020672 -90.50302869 240.84047118 -90.55709171 254.19075871 C-90.64151809 275.18834135 -90.69521386 296.18588687 -90.75390625 317.18359375 C-118.80390625 317.18359375 -146.85390625 317.18359375 -175.75390625 317.18359375 C-175.75390625 213.89359375 -175.75390625 110.60359375 -175.75390625 4.18359375 C-149.35390625 4.18359375 -122.95390625 4.18359375 -95.75390625 4.18359375 C-94.72984513 7.25577711 -94.59925265 9.4437155 -94.54858398 12.66479492 C-94.51866615 14.3461982 -94.51866615 14.3461982 -94.48814392 16.06156921 C-94.47143143 17.271017 -94.45471893 18.48046478 -94.4375 19.7265625 C-94.4167189 20.96529617 -94.39593781 22.20402985 -94.37452698 23.4803009 C-94.32018828 26.76984631 -94.26994674 30.05942101 -94.22167969 33.34906006 C-94.17139979 36.70737189 -94.11574764 40.06559421 -94.06054688 43.42382812 C-93.95337577 50.01034534 -93.8516049 56.59692959 -93.75390625 63.18359375 C-93.44719498 62.64501236 -93.1404837 62.10643097 -92.82447815 61.55152893 C-91.4104045 59.07372289 -89.99040526 56.59936087 -88.5703125 54.125 C-88.08808228 53.27796509 -87.60585205 52.43093018 -87.10900879 51.55822754 C-73.64848265 28.15623015 -54.53273658 11.29366128 -28.43896484 3.7565918 C-19.10510074 1.29130043 -9.5963373 0.63975582 0 0 Z " fill="#296BFF" transform="translate(1224.75390625,383.81640625)"/>
<path d="M0 0 C6.96502988 6.76083017 12.19963722 14.03393002 16.99462891 22.4453125 C17.48447266 23.28449219 17.97431641 24.12367188 18.47900391 24.98828125 C22.26853665 31.97084621 26.99462891 42.38493478 26.99462891 50.4453125 C17.38112036 52.14230164 7.76729205 53.83746607 -1.84695244 55.53028107 C-6.31088855 56.31632209 -10.7747107 57.10299882 -15.23828125 57.89111328 C-19.54330931 58.65121069 -23.84862507 59.40965793 -28.1541481 60.16694641 C-29.79934234 60.4566178 -31.44443081 60.74689056 -33.08941269 61.0377655 C-35.38778453 61.44407215 -37.68651816 61.84826736 -39.98535156 62.25195312 C-40.67011566 62.37351273 -41.35487976 62.49507233 -42.06039429 62.62031555 C-46.77726677 63.4453125 -46.77726677 63.4453125 -49.00537109 63.4453125 C-49.27349609 62.69507813 -49.54162109 61.94484375 -49.81787109 61.171875 C-55.39393744 46.60807014 -64.0456963 37.87287641 -78.09912109 31.5234375 C-94.12773214 25.57733986 -113.63089363 25.85772638 -129.44287109 32.2578125 C-138.78542601 36.58728917 -145.51504205 41.10629312 -149.38037109 50.9453125 C-150.97138921 59.85501394 -149.85074994 66.87500656 -144.63818359 74.42578125 C-133.3981133 87.09183061 -111.99342769 89.40627641 -96.27880859 92.46875 C-94.9155254 92.73944756 -93.55237949 93.0108373 -92.18936157 93.28286743 C-86.49793086 94.41763913 -80.80434834 95.54135304 -75.109375 96.65820312 C-30.60325707 105.39812145 -30.60325707 105.39812145 -10.00537109 115.4453125 C-8.98958984 115.93902344 -7.97380859 116.43273437 -6.92724609 116.94140625 C-0.29309948 120.36040081 5.40272896 124.51595994 10.99462891 129.4453125 C12.265 130.55519531 12.265 130.55519531 13.56103516 131.6875 C28.08684032 145.21534908 34.06762022 163.20334774 35.18212891 182.73046875 C35.71134721 209.9521351 25.91461681 231.93065202 7.36962891 251.4453125 C-3.0110252 261.54113159 -14.89176739 268.50074214 -28.00537109 274.4453125 C-29.15005859 274.97898437 -30.29474609 275.51265625 -31.47412109 276.0625 C-39.27798564 279.4547204 -47.19103778 281.6754903 -55.44287109 283.6953125 C-56.4424585 283.94168457 -57.4420459 284.18805664 -58.47192383 284.44189453 C-73.11888467 287.85782689 -87.44994644 288.79677721 -102.43041992 288.76098633 C-105.17260939 288.75783578 -107.91370513 288.78135803 -110.65576172 288.80664062 C-149.81727014 288.94739361 -188.3670825 278.08653618 -217.19287109 250.6953125 C-230.13199954 237.23105709 -244.00537109 215.90028192 -244.00537109 196.4453125 C-229.60155007 193.47418504 -215.15518121 190.80928256 -200.66430664 188.29833984 C-197.15124565 187.68808169 -193.63985808 187.06872721 -190.12841797 186.44921875 C-187.87265481 186.05673829 -185.61679877 185.66479116 -183.36083984 185.2734375 C-181.80299019 184.99696381 -181.80299019 184.99696381 -180.21366882 184.71490479 C-175.06392093 183.83228975 -170.23050333 183.23135136 -165.00537109 183.4453125 C-164.36921875 184.89550781 -164.36921875 184.89550781 -163.72021484 186.375 C-156.35248822 202.86376417 -148.16047925 214.31901126 -131.00537109 221.4453125 C-111.80317072 227.93868815 -88.05550808 228.10534081 -69.56787109 219.3203125 C-62.38213507 215.4711017 -57.34756059 210.83691781 -53.50537109 203.6328125 C-52.35296484 196.28622265 -51.70478376 188.85268346 -55.62255859 182.25 C-62.61529462 173.12388688 -72.23801588 169.0004584 -83.08740234 166.16796875 C-83.90177765 165.95474472 -84.71615295 165.74152069 -85.5552063 165.52183533 C-98.95689356 162.09883771 -112.56029878 159.50151077 -126.11181641 156.75024414 C-201.48017056 141.40605581 -201.48017056 141.40605581 -223.29833984 109.20703125 C-231.29005943 96.27763595 -235.4404045 82.67484688 -236.00537109 67.4453125 C-236.04533203 66.74921875 -236.08529297 66.053125 -236.12646484 65.3359375 C-236.81438821 43.80798262 -230.26328441 22.12270747 -215.63037109 6.1328125 C-213.78732693 4.20042584 -211.90512723 2.32366294 -210.00537109 0.4453125 C-209.21388672 -0.35648437 -208.42240234 -1.15828125 -207.60693359 -1.984375 C-157.27728404 -50.30752689 -49.46190379 -46.44471336 0 0 Z " fill="#296BFF" transform="translate(1840.00537109375,418.5546875)"/>
<path d="M0 0 C31.51272349 -0.73973529 65.32629735 7.99822812 88.87109375 29.75390625 C90.7234917 31.5272254 92.54671246 33.32643945 94.37109375 35.12890625 C95.44230469 36.09183594 95.44230469 36.09183594 96.53515625 37.07421875 C121.75785971 60.28714504 129.2812771 97.5625968 131.37109375 130.12890625 C131.37109375 140.02890625 131.37109375 149.92890625 131.37109375 160.12890625 C69.99109375 160.12890625 8.61109375 160.12890625 -54.62890625 160.12890625 C-51.49642624 181.01210629 -48.09264864 200.63643861 -30.62890625 214.12890625 C-14.14785315 224.68621383 4.56807181 227.5445983 23.68359375 224.00390625 C35.10650986 221.17761773 46.79086731 215.5693369 53.47900391 205.453125 C55.66407865 201.78435753 57.56473039 197.99883041 59.37109375 194.12890625 C67.37576868 194.74186009 75.15897951 196.10910915 83.03515625 197.6328125 C84.30837738 197.87555405 85.58159851 198.11829559 86.8934021 198.36839294 C90.24446 199.00732772 93.59449785 199.65145777 96.94433594 200.29675293 C100.37634133 200.95689533 103.80930564 201.61201174 107.2421875 202.26757812 C113.95275859 203.5498282 120.66226329 204.83758083 127.37109375 206.12890625 C126.90829924 207.71335632 126.44214642 209.29682568 125.97460938 210.87988281 C125.71538696 211.76178284 125.45616455 212.64368286 125.18908691 213.55230713 C117.6742241 237.22339604 99.1155086 255.20919796 77.8125 266.86523438 C64.98669798 273.5038695 51.57913439 277.734256 37.37109375 280.12890625 C35.43169922 280.46535156 35.43169922 280.46535156 33.453125 280.80859375 C-4.45421364 286.27204038 -46.42693173 280.83306133 -77.87890625 257.69140625 C-79.80888088 256.18749698 -81.72644126 254.66746795 -83.62890625 253.12890625 C-84.43199219 252.48050781 -85.23507812 251.83210938 -86.0625 251.1640625 C-112.41800414 228.82811532 -124.8685498 193.90907145 -127.875 160.38476562 C-129.59893529 138.20044043 -128.44974739 115.66744864 -122.62890625 94.12890625 C-122.3357251 93.03304199 -122.3357251 93.03304199 -122.03662109 91.91503906 C-117.01569887 73.81738611 -108.23392371 56.13497074 -95.62890625 42.12890625 C-94.86586182 41.2773999 -94.86586182 41.2773999 -94.08740234 40.40869141 C-69.09036245 13.00679737 -36.36400948 1.78307922 0 0 Z M-38.62890625 74.12890625 C-39.20382812 74.68191406 -39.77875 75.23492188 -40.37109375 75.8046875 C-48.90188282 84.7111849 -54.62890625 100.72240752 -54.62890625 113.12890625 C-17.00890625 113.12890625 20.61109375 113.12890625 59.37109375 113.12890625 C57.7157275 94.91987749 52.10412512 79.68241345 38.37109375 67.12890625 C14.33669903 49.66128604 -18.14042038 53.38339636 -38.62890625 74.12890625 Z " fill="#296BFF" transform="translate(2058.62890625,880.87109375)"/>
<path d="M0 0 C19.78559105 18.72800934 26.88547496 47.03537727 28.06640625 73.28515625 C28.22942472 79.29079223 28.19356986 85.29889092 28.17993164 91.30615234 C28.1796489 93.07174172 28.17980921 94.83733122 28.18037415 96.60292053 C28.18065871 101.35195055 28.17481743 106.10095484 28.16780019 110.84997892 C28.16150957 115.82939743 28.16095836 120.80881666 28.15977478 125.78823853 C28.15667819 135.19780043 28.14848753 144.60735058 28.13842529 154.01690733 C28.12721198 164.73770356 28.1217406 175.45850038 28.11672986 186.17930102 C28.10630337 208.21459409 28.08797889 230.24987108 28.06640625 252.28515625 C3.64640625 252.28515625 -20.77359375 252.28515625 -45.93359375 252.28515625 C-45.98257813 240.45285156 -46.0315625 228.62054687 -46.08203125 216.4296875 C-46.11742585 208.92382091 -46.15331107 201.41796194 -46.19140625 193.91210938 C-46.251752 182.004331 -46.31012203 170.09656691 -46.35546875 158.1887207 C-46.3885086 149.51502891 -46.42840525 140.84139973 -46.47638381 132.16777724 C-46.50153007 127.57924458 -46.52334577 122.99075282 -46.53693771 118.40217018 C-46.54986664 114.07410551 -46.57203512 109.74618199 -46.60097694 105.41819572 C-46.60996881 103.83852805 -46.61572306 102.2588377 -46.61780739 100.67914581 C-46.64585502 82.63428147 -48.13121003 64.9525746 -60.93359375 51.125 C-71.25597764 41.26343682 -83.02256479 38.53396116 -96.93359375 38.28515625 C-110.99668601 39.02057943 -123.96130714 43.89150143 -133.78125 54.23046875 C-144.61409512 67.91697895 -146.38466928 83.39617449 -146.3659668 100.2746582 C-146.37500384 101.94158648 -146.38533575 103.60850815 -146.39685059 105.27542114 C-146.42421893 109.7600635 -146.43367741 114.24457908 -146.43970466 118.72929406 C-146.44914131 123.43116712 -146.47534863 128.13294743 -146.49971008 132.83476257 C-146.54323407 141.72017726 -146.57186738 150.6055738 -146.59503347 159.49106234 C-146.62724247 171.51083468 -146.68269216 183.53049895 -146.73677921 195.55018902 C-146.82127151 214.46181245 -146.87491812 233.37339427 -146.93359375 252.28515625 C-171.35359375 252.28515625 -195.77359375 252.28515625 -220.93359375 252.28515625 C-220.93359375 162.19515625 -220.93359375 72.10515625 -220.93359375 -20.71484375 C-197.83359375 -20.71484375 -174.73359375 -20.71484375 -150.93359375 -20.71484375 C-150.49609375 2.03515625 -150.49609375 2.03515625 -150.36547852 9.20214844 C-150.32734901 11.07878346 -150.28887931 12.95541161 -150.25 14.83203125 C-150.22528625 16.29116943 -150.22528625 16.29116943 -150.20007324 17.77978516 C-150.17989136 18.71322754 -150.15970947 19.64666992 -150.13891602 20.60839844 C-150.11559959 21.82085236 -150.11559959 21.82085236 -150.09181213 23.05780029 C-149.9365724 25.24322356 -149.53350566 27.18224206 -148.93359375 29.28515625 C-148.59328125 28.54652344 -148.25296875 27.80789063 -147.90234375 27.046875 C-137.51622382 5.30784205 -121.31623321 -11.58789385 -98.5234375 -19.96875 C-64.27922575 -30.62337845 -26.92032836 -23.87479627 0 0 Z " fill="#296BFF" transform="translate(396.93359375,905.71484375)"/>
<path d="M0 0 C18.05762712 19.08722867 27.22694201 43.95134697 27.12025452 70.1751709 C27.12153615 71.34923642 27.12153615 71.34923642 27.12284368 72.54702044 C27.12447987 75.14790732 27.11900784 77.74872851 27.11352539 80.34960938 C27.11324309 82.22268675 27.11340209 84.09576424 27.1139679 85.96884155 C27.1142542 91.03846382 27.10838445 96.10806231 27.10139394 101.17767906 C27.0951326 106.48144789 27.0945544 111.7852173 27.09336853 117.08898926 C27.09026341 127.12561321 27.08206106 137.16222624 27.07201904 147.19884539 C27.06083246 158.62807437 27.05534104 170.05730388 27.05032361 181.48653698 C27.03987777 204.9910321 27.02154247 228.49551225 27 252 C2.58 252 -21.84 252 -47 252 C-47.02187378 244.2332373 -47.02187378 244.2332373 -47.04418945 236.30957031 C-47.09455548 219.19050321 -47.16100507 202.07152633 -47.23571491 184.95254898 C-47.28061389 174.57465889 -47.32004211 164.19680267 -47.34643555 153.81884766 C-47.36946345 144.7697551 -47.40291484 135.72077024 -47.44870156 126.67176318 C-47.47256925 121.88371117 -47.49134024 117.0957654 -47.49761391 112.30765533 C-47.50369406 107.7932267 -47.5237989 103.27906967 -47.55427551 98.7647419 C-47.56300901 97.11531783 -47.56678814 95.4658582 -47.56500816 93.81641197 C-47.55239962 76.72847251 -50.33092262 62.08269318 -62.40234375 49.265625 C-72.94661359 40.06911898 -86.90796555 37.39715723 -100.53125 38.2109375 C-114.72323888 39.87504239 -126.53831066 45.15635262 -135.75 56.25 C-145.16836157 69.09918006 -146.29939337 82.37217883 -146.31884766 97.71899414 C-146.32815754 99.40503413 -146.33832778 101.09106955 -146.34928894 102.77709961 C-146.37648348 107.33219686 -146.39170694 111.88726336 -146.40471697 116.44242024 C-146.42039385 121.21103374 -146.44716946 125.97958488 -146.4727478 130.74815369 C-146.51945511 139.76827729 -146.55623809 148.78841273 -146.58942068 157.80859512 C-146.62769905 168.08192391 -146.67709418 178.35518995 -146.72740483 188.62846577 C-146.83060496 209.75226986 -146.9184367 230.87610052 -147 252 C-171.42 252 -195.84 252 -221 252 C-221 161.91 -221 71.82 -221 -21 C-198.23 -21 -175.46 -21 -152 -21 C-151.35981539 -17.15889236 -150.86968558 -13.98124205 -150.79467773 -10.18798828 C-150.7647599 -8.8372673 -150.7647599 -8.8372673 -150.73423767 -7.45925903 C-150.71752518 -6.50590668 -150.70081268 -5.55255432 -150.68359375 -4.5703125 C-150.66281265 -3.57998016 -150.64203156 -2.58964783 -150.62062073 -1.56930542 C-150.5554968 1.57872918 -150.49641371 4.72684367 -150.4375 7.875 C-150.39427941 10.0156331 -150.35066401 12.15625826 -150.30664062 14.296875 C-150.19985372 19.53116676 -150.09801988 24.76553712 -150 30 C-149.47325684 28.99042236 -148.94651367 27.98084473 -148.40380859 26.94067383 C-147.69389955 25.59184664 -146.98376372 24.24313879 -146.2734375 22.89453125 C-145.92853271 22.23199341 -145.58362793 21.56945557 -145.22827148 20.88684082 C-134.88490954 1.31133758 -118.20924475 -14.12863754 -97 -21 C-63.15107421 -30.15459584 -26.12787126 -24.29892027 0 0 Z " fill="#296BFF" transform="translate(1366,906)"/>
<path d="M0 0 C24.09 0 48.18 0 73 0 C73.04898437 11.59253906 73.09796875 23.18507813 73.1484375 35.12890625 C73.18383805 42.4889396 73.21972717 49.84896524 73.2578125 57.20898438 C73.31812425 68.88173641 73.37648603 80.55447404 73.421875 92.22729492 C73.45494772 100.7303415 73.49486181 109.23332461 73.54279006 117.73630089 C73.56790409 122.23323534 73.5897288 126.73012853 73.60334396 131.22711372 C73.61630278 135.47146635 73.63850148 139.71567631 73.66738319 143.95994949 C73.67635225 145.50652574 73.68212377 147.05312488 73.68421364 148.59972572 C73.71340568 166.94381672 74.89875002 185.18214288 87 200 C98.05442071 210.24639929 110.91615175 213.55388058 125.66015625 213.2734375 C139.54851924 212.64736088 151.25666056 207.21637146 160.875 197.25 C171.88385781 184.23595738 173.45047676 168.50139436 173.43237305 152.12402344 C173.44140775 150.45724265 173.45173911 148.79046848 173.46325684 147.123703 C173.49065249 142.63486939 173.50008745 138.14616244 173.50611091 133.65725613 C173.51554032 128.95270786 173.54174715 124.24825253 173.56611633 119.54376221 C173.60966 110.65123104 173.6382813 101.75871803 173.66143972 92.86611295 C173.69363495 80.83817316 173.74908788 68.81034154 173.80318546 56.78248405 C173.88770662 37.85502168 173.94133172 18.92760107 174 0 C198.42 0 222.84 0 248 0 C248 90.09 248 180.18 248 273 C224.9 273 201.8 273 178 273 C177.67 255.84 177.34 238.68 177 221 C174.03 226.61 171.06 232.22 168 238 C165.38718206 241.62423134 162.98611782 244.75777354 160 248 C159.19046875 248.90105469 158.3809375 249.80210937 157.546875 250.73046875 C142.04016567 267.16667381 122.05017936 275.36101899 99.46875 276.28515625 C73.49099929 276.89387439 48.54713748 271.4824563 29.15625 253.11181641 C27.75912882 251.75314385 26.37903427 250.37702694 25 249 C24.33097656 248.34257813 23.66195313 247.68515625 22.97265625 247.0078125 C7.4017679 230.55422073 -0.20939698 205.02658755 -0.12025452 182.90711975 C-0.12110894 182.12118028 -0.12196337 181.3352408 -0.12284368 180.52548498 C-0.12448296 177.90767274 -0.11900266 175.28992542 -0.11352539 172.67211914 C-0.11324316 170.78933717 -0.11340196 168.9065551 -0.1139679 167.02377319 C-0.11425446 161.92310104 -0.10838046 156.82245247 -0.10139394 151.72178578 C-0.09513699 146.38731459 -0.09455475 141.05284283 -0.09336853 135.71836853 C-0.09026212 125.62150417 -0.08205803 115.52465065 -0.07201904 105.42779106 C-0.06083647 93.93087191 -0.05534205 82.43395224 -0.05032361 70.937029 C-0.03987485 47.29134527 -0.02153794 23.64567641 0 0 Z " fill="#296BFF" transform="translate(1455,885)"/>
<path d="M0 0 C28.05 0 56.1 0 85 0 C85 24.42 85 48.84 85 74 C104.14 74 123.28 74 143 74 C143 95.45 143 116.9 143 139 C123.86 139 104.72 139 85 139 C85.04033467 160.32348176 85.0971559 181.64671283 85.18390274 202.97005177 C85.22365798 212.87155734 85.25606832 222.77298384 85.27099609 232.67456055 C85.28403084 241.30799415 85.31104197 249.9412535 85.35461307 258.57458895 C85.37718692 263.14299129 85.39291313 267.71117905 85.39188385 272.27964211 C85.39113482 276.58648593 85.40918243 280.89285614 85.44116783 285.19957733 C85.44963228 286.77362849 85.45144042 288.34773298 85.44580269 289.9217968 C85.4170815 299.17947777 85.3924342 308.95460505 91.27008438 316.66642475 C97.97315572 322.9730083 106.74332266 323.49497853 115.47436523 323.28833008 C120.54114843 323.03998282 125.50566674 322.26789092 130.51171875 321.4765625 C131.4286853 321.33516846 132.34565186 321.19377441 133.29040527 321.0480957 C135.52756334 320.70257178 137.76403359 320.3531389 140 320 C141.59084159 328.03023984 143.17347938 336.06203401 144.74562931 344.09595203 C145.47587667 347.82625308 146.20895216 351.55595183 146.94848633 355.28442383 C147.6618887 358.88169233 148.36786768 362.48034475 149.06869316 366.08008385 C149.33756308 367.45413961 149.60911728 368.82767289 149.88337898 370.20066261 C150.2666461 372.12171677 150.63954805 374.04483013 151.01196289 375.96801758 C151.22736221 377.06277908 151.44276154 378.15754059 151.66468811 379.28547668 C152 382 152 382 151 385 C149.10839844 385.76782227 149.10839844 385.76782227 146.609375 386.31640625 C145.21972534 386.6254187 145.21972534 386.6254187 143.80200195 386.94067383 C142.79484131 387.14587646 141.78768066 387.3510791 140.75 387.5625 C139.71383545 387.77865967 138.6776709 387.99481934 137.61010742 388.2175293 C101.51800038 395.43924704 61.59894328 394.97818734 30 374 C13.27948898 361.62039088 4.75782195 342.92049702 1 323 C-0.27162954 314.32387409 -0.13361627 305.65971304 -0.11352539 296.91381836 C-0.11324298 295.18837485 -0.11340231 293.46293123 -0.1139679 291.73748779 C-0.11425375 287.07493567 -0.10839131 282.4124095 -0.10139394 277.74986339 C-0.09512509 272.86917806 -0.09455381 267.98849208 -0.09336853 263.10780334 C-0.09026561 253.87515469 -0.08206626 244.64251793 -0.07201904 235.4098745 C-0.0608256 224.8947526 -0.05533932 214.37963012 -0.05032361 203.86450374 C-0.03988275 182.24299439 -0.02155022 160.62150133 0 139 C-14.19 139 -28.38 139 -43 139 C-43 117.55 -43 96.1 -43 74 C-28.81 74 -14.62 74 0 74 C0 49.58 0 25.16 0 0 Z " fill="#296BFF" transform="translate(1418,314)"/>
<path d="M0 0 C0.66644531 0.52078125 1.33289062 1.0415625 2.01953125 1.578125 C14.6330373 11.82815358 24.86036609 28.94208073 28 45 C28 45.99 28 46.98 28 48 C17.33638032 50.01639734 6.66978543 52.01648766 -4 54 C-4.69702026 54.12969177 -5.39404053 54.25938354 -6.11218262 54.39300537 C-10.61474672 55.22983017 -15.11931654 56.0551005 -19.625 56.875 C-20.78418945 57.08987061 -21.94337891 57.30474121 -23.13769531 57.52612305 C-24.75949707 57.81869995 -24.75949707 57.81869995 -26.4140625 58.1171875 C-27.3520166 58.28847168 -28.2899707 58.45975586 -29.25634766 58.63623047 C-32.19996493 59.02651252 -35.03403992 59.06173393 -38 59 C-38.3403125 58.23816406 -38.680625 57.47632813 -39.03125 56.69140625 C-44.59081478 44.84775893 -50.85556944 37.26258658 -63 32 C-63.78375 31.6596875 -64.5675 31.319375 -65.375 30.96875 C-78.57671998 26.39892385 -96.33727713 27.19550785 -109 33 C-116.95559782 36.9615187 -122.57838141 41.13326259 -125.51953125 49.76171875 C-126.7641283 55.55971962 -125.84505279 61.07358451 -123 66.25 C-115.14255214 77.38512612 -100.2792244 80.20459693 -87.75 82.75 C-85.97641113 83.12342529 -85.97641113 83.12342529 -84.16699219 83.50439453 C-77.73110854 84.85157375 -71.28618315 86.14451648 -64.831604 87.39892578 C-4.31533041 99.16931947 -4.31533041 99.16931947 17 119 C17.64324219 119.58910156 18.28648437 120.17820312 18.94921875 120.78515625 C31.43020108 133.5466101 35.50006433 151.69532596 35.35424805 168.95654297 C34.75897313 189.82692376 26.22931454 207.11355904 12 222 C11.20529297 222.90685547 11.20529297 222.90685547 10.39453125 223.83203125 C-10.56179955 246.83551005 -46.85814 254.78156957 -76.52001953 256.1640625 C-104.79923858 257.07445989 -133.6450327 254.56116884 -159 241 C-160.02351563 240.45472656 -161.04703125 239.90945313 -162.1015625 239.34765625 C-182.04186925 228.21642172 -198.14344786 211.10068835 -205 189 C-206.10394508 184.35303029 -207.07862804 179.68631683 -208 175 C-200.77652042 173.70693345 -193.55198835 172.41992237 -186.32611465 171.14029789 C-182.96965449 170.54571615 -179.61356856 169.94917739 -176.25830078 169.34790039 C-172.38681799 168.65420958 -168.51376993 167.9695081 -164.640625 167.28515625 C-163.455755 167.07157974 -162.27088501 166.85800323 -161.05010986 166.63795471 C-153.71081883 165.34982247 -146.4363705 164.4797539 -139 164 C-138.48050781 165.08539062 -137.96101563 166.17078125 -137.42578125 167.2890625 C-136.72179152 168.73458808 -136.01733975 170.1798887 -135.3125 171.625 C-134.97283203 172.33785156 -134.63316406 173.05070312 -134.28320312 173.78515625 C-132.5498951 177.31656886 -130.80570316 180.40989387 -128.23046875 183.3984375 C-126 186 -126 186 -126 188 C-125.15501953 188.40412109 -125.15501953 188.40412109 -124.29296875 188.81640625 C-121.87114182 190.06651453 -119.61513094 191.48027945 -117.3125 192.9375 C-107.04482949 199.14656328 -97.2387596 200.19681122 -85.4375 200.25 C-84.32052734 200.270625 -83.20355469 200.29125 -82.05273438 200.3125 C-69.44048552 200.37099159 -57.73875621 198.00628271 -48.125 189.4375 C-43.52663041 184.16289959 -41.40583306 180.09193268 -41 173 C-41.90603594 166.98008815 -43.8147712 162.46993824 -48 158 C-60.58151976 149.43069717 -75.34942034 146.96201518 -90 144 C-96.38910466 142.7016277 -102.77623276 141.39396478 -109.16195679 140.07907104 C-111.92145439 139.51602636 -114.6836287 138.9681624 -117.4465332 138.42211914 C-145.05507873 132.86785212 -174.13694757 123.23082275 -190.75 98.8125 C-201.47988887 80.93765032 -203.09234294 60.09937182 -199 40 C-193.32239146 18.19887034 -179.45896456 2.27269243 -160.28515625 -9.15234375 C-114.63788376 -34.82554219 -41.22003398 -34.43891933 0 0 Z " fill="#296BFF" transform="translate(2434,907)"/>
<path d="M0 0 C24.42 0 48.84 0 74 0 C74 21.45 74 42.9 74 65 C90.5 65 107 65 124 65 C124 83.81 124 102.62 124 122 C107.5 122 91 122 74 122 C74.0629072 140.63721413 74.13811262 159.27424645 74.23571491 177.91130829 C74.28064202 186.56520875 74.32006378 195.21906834 74.34643555 203.87304688 C74.36944064 211.41762427 74.40286666 218.962072 74.44870156 226.5065465 C74.4726 230.49969932 74.49135087 234.49272399 74.49761391 238.48594666 C74.50368013 242.24855777 74.523735 246.01084112 74.55427551 249.77333069 C74.56718951 251.80425193 74.56549002 253.83524984 74.5632782 255.86621094 C74.54037985 266.40698918 74.54037985 266.40698918 79.34547901 275.51073456 C85.1859701 280.7201957 90.47206659 281.32207176 97.9375 281.25 C98.70384766 281.25773437 99.47019531 281.26546875 100.25976562 281.2734375 C107.6043487 281.24945519 114.75713514 280.14632453 122 279 C123.42797957 286.49235855 124.85171068 293.98551529 126.27246094 301.47924805 C126.75650304 304.0295652 127.24152515 306.57969655 127.72753906 309.12963867 C128.42509254 312.79037086 129.11914357 316.45175212 129.8125 320.11328125 C130.03123779 321.2571077 130.24997559 322.40093414 130.4753418 323.579422 C130.67554932 324.64029526 130.87575684 325.70116852 131.08203125 326.79418945 C131.25968018 327.72906693 131.4373291 328.6639444 131.62036133 329.62715149 C132 332 132 332 132 335 C129.77318028 335.63447422 127.54402241 336.25744424 125.3125 336.875 C124.07113281 337.22304687 122.82976562 337.57109375 121.55078125 337.9296875 C110.32698406 340.71232043 99.27851221 341.37289313 87.77270508 341.37060547 C85.33277705 341.37496378 82.89468678 341.41138012 80.45507812 341.44921875 C57.47126428 341.61267592 35.38117322 335.45230454 18.31640625 319.40234375 C3.36643506 303.89773619 -0.50264489 283.77658319 -0.34057617 262.99853516 C-0.33972753 261.44969194 -0.34020965 259.90084753 -0.34190369 258.352005 C-0.34275583 254.19376687 -0.32525842 250.03579438 -0.30418181 245.87761736 C-0.28528307 241.51481037 -0.28365427 237.15199566 -0.28010559 232.78915405 C-0.27082356 224.54826669 -0.24626244 216.30750035 -0.21605712 208.06666601 C-0.18239269 198.67596883 -0.16599698 189.28526552 -0.15097082 179.89452291 C-0.11970893 160.59626629 -0.06474561 141.29817533 0 122 C-12.54 122 -25.08 122 -38 122 C-38 103.19 -38 84.38 -38 65 C-25.46 65 -12.92 65 0 65 C0 43.55 0 22.1 0 0 Z " fill="#296BFF" transform="translate(1776,820)"/>
<path d="M0 0 C24.42 0 48.84 0 74 0 C74 90.09 74 180.18 74 273 C49.58 273 25.16 273 0 273 C0 182.91 0 92.82 0 0 Z " fill="#296BFF" transform="translate(1010,885)"/>
<path d="M0 0 C24.42 0 48.84 0 74 0 C74 90.09 74 180.18 74 273 C49.58 273 25.16 273 0 273 C0 182.91 0 92.82 0 0 Z " fill="#296BFF" transform="translate(41,885)"/>
<path d="M0 0 C7.84317507 7.76536579 11.24012808 16.4273275 11.40625 27.32421875 C11.29658291 38.51869832 8.21374076 45.53555817 0.39453125 53.6875 C-8.29296152 61.78743288 -17.54167274 65.54088299 -29.40625 65.38671875 C-30.23624512 65.37842041 -31.06624023 65.37012207 -31.92138672 65.36157227 C-44.0228829 65.02955504 -52.10109812 60.50811249 -60.78125 52.29296875 C-67.68287465 44.97724663 -70.35540342 35.21515697 -70.17578125 25.3359375 C-69.53814906 14.80638968 -64.87065261 5.74414689 -57.12890625 -1.453125 C-39.72456693 -14.70894396 -16.70597087 -13.95190683 0 0 Z " fill="#296BFF" transform="translate(1076.03125,785.05078125)"/>
<path d="M0 0 C8.21495017 7.70695855 11.39391847 15.95179316 12.15234375 27.09375 C12.27335985 37.74316698 8.37684745 46.53257937 1.234375 54.30078125 C-2.39887085 57.64974641 -6.40938836 59.98594418 -10.8125 62.1875 C-11.80636719 62.69990234 -11.80636719 62.69990234 -12.8203125 63.22265625 C-21.87793236 67.04106462 -34.67695185 66.66311144 -43.875 63.5625 C-54.55181798 58.86993222 -62.05476732 52.30395171 -67.25 41.75 C-70.30152894 33.32196768 -70.64474872 21.4150967 -67.1875 13.0625 C-66.06640625 11.0625 -66.06640625 11.0625 -64.8125 9.1875 C-64.38839844 8.506875 -63.96429688 7.82625 -63.52734375 7.125 C-57.4791782 -1.77035212 -49.19164555 -7.18594072 -38.8125 -9.8125 C-24.37075563 -12.21701378 -11.26960745 -9.40365605 0 0 Z " fill="#296BFF" transform="translate(106.8125,784.8125)"/>
</svg>
